<?xml version="1.0" encoding="UTF-8"?>
<svg id="a" data-name="Layer 1" xmlns="http://www.w3.org/2000/svg" viewBox="0 0 397.81 397.81">
  <defs>
    <style>
      .b {
        stroke: #b3c9e8;
        stroke-miterlimit: 10;
        stroke-width: 5px;
      }

      .b, .c {
        fill: #cfe4ed;
      }

      .d {
        fill: #1f2938;
      }

      .e {
        fill: #2d7f5b;
      }
    </style>
  </defs>
  <path class="b" d="M202.7,128.94v-21.47l155.4-27.47C323.15,25.73,268.25,2.5,198.91,2.5,90.43,2.5,2.5,90.43,2.5,198.91s87.93,196.41,196.41,196.41,196.41-87.93,196.41-196.41c0-18.97-2.7-37.31-7.72-54.67l-184.89-15.3Z"/>
  <path class="e" d="M157.03,318.79h-57.98l3-28.88,71.65-.15,6.02,54.04"/>
  <path class="d" d="M166.63,132.18v-22.27h9.22c-.77-8.6-3.3-6.91-5.45-9.52-2.15-8.22-6.6-17.66-15.05-21.81-1.92-1.23-6.91-2.76-7.91-3.61-2.46-2.07-.61-8.83-8.83-8.91-7.91,0-6.3,7.37-8.06,8.91-1,.84-5.38,1.84-7.14,2.84-5.61,3.15-11.67,8.99-14.13,15.05-.77,1.77-1.54,7.22-1.92,7.68-4.99,1-6.45,4.22-5.99,9.37h9.98v22.27h-16.43l3.61,13.59,15.13,11.52-2.3,22.96c-.15.61.77,1.84,1.15,1.84h53.37l-1.38-24.81c.77-2.15,12.44-8.52,14.51-11.6,1.77-2.61,2.92-10.14,3.84-13.52h-16.2ZM133.76,132.64h-12.52l.23-22.42h12.29v22.42ZM155.45,132.41l-11.86-.23v-21.96l11.86.23v21.96Z"/>
  <polygon class="e" points="172 247.37 157.8 230.48 107.5 230.48 110.49 200.83 167.47 200.83 172 247.37"/>
  <polygon class="d" points="168.17 271.18 102.89 271.18 105.88 247.68 148.97 247.75 168.17 271.18"/>
  <g>
    <path class="d" d="M91.03,360.07l57.26-23.58-51.8.13"/>
    <path class="d" d="M188.55,392.52l-39.85-56.19-57.67,23.75s25.04,16.97,33.61,18.16c0,0,24.88,12.25,63.91,14.28Z"/>
  </g>
  <g>
    <polygon class="c" points="121.24 132.64 133.76 132.64 133.76 110.21 121.47 110.21 121.24 132.64"/>
    <polygon class="c" points="143.49 110.21 143.26 132.64 155.78 132.64 155.78 110.21 143.49 110.21"/>
  </g>
</svg>