<?xml version="1.0" encoding="UTF-8"?>
<svg id="Layer_1" data-name="Layer 1" xmlns="http://www.w3.org/2000/svg" viewBox="0 0 53.63 64.56">
  <path d="M2.52,64.56c-1.33-.44-2.37-1.36-2.52-2.83V6.21c.15-1.41,1.2-2.56,2.6-2.82l14.52-.02c.07-1.66,1.19-3,2.85-3.25,4.34.22,9.04-.34,13.34-.02,1.89.14,3.08,1.39,3.21,3.27l14.52.02c1.27.23,2.18,1.15,2.54,2.37l.06,56.09c-.23,1.41-1.21,2.27-2.52,2.71H2.52ZM20.11,2.27c-.64.21-.79.67-.85,1.29-.11,1.15-.14,4.06.02,5.15.11.75.56,1.07,1.31,1.09,4.01-.29,8.52.37,12.47,0,.94-.09,1.23-.38,1.32-1.32.11-1.19.13-3.87,0-5.04-.06-.49-.21-.86-.66-1.1l-13.6-.07ZM17.13,5.52H2.84c-.29,0-.81.72-.7,1.06l.06,55.22.7.56h47.85c.49-.17.79-.45.76-1V6.58c.11-.34-.41-1.06-.7-1.06h-14.29v2.14h11.27c.41,0,1.35.87,1.45,1.32.24,14.26.12,28.6.06,42.88-.14.27-.26.56-.44.81-1.77,2.38-5.12,4.66-7.05,7.05l-1.1.53-34.98-.09c-.66-.22-1.06-.68-1.34-1.3-.15-16.6-.19-33.29.02-49.89.11-.44,1.05-1.32,1.45-1.32h11.27v-2.14ZM17.38,9.8H6.43v48.34h33.24v-5.6c0-.23.38-.99.56-1.2.2-.23,1.01-.75,1.26-.75h5.73V9.8h-10.95c-.37,1.21-1.51,1.96-2.72,2.13-4.25-.22-8.87.34-13.08.02-1.4-.11-2.63-.75-3.08-2.15ZM45.7,52.73h-3.71l-.19.19v3.59l3.9-3.78Z"/>
  <path d="M19.22,15.14c.96-.03,1.61.44,2.16,1.17l8.44,14.6c.69,1.66-.37,3.42-2.18,3.58-5.36.48-11.44-.37-16.87,0-1.74-.23-2.73-2.11-1.93-3.7,2.1-3.61,4.13-7.27,6.25-10.87.62-1.04,1.59-3.05,2.29-3.88.42-.49,1.21-.88,1.85-.9ZM10.83,32.34h16.81c.22,0,.25-.67.09-.85-2.61-4.23-4.88-8.68-7.48-12.91-.25-.41-.77-1.66-1.28-1.07l-8.25,14.39.11.44Z"/>
  <path d="M18.99,36.65c.81-.1,1.69.23,2.22.86l8.53,14.63c.84,1.83-.19,3.68-2.22,3.87-5.28-.4-11.3.51-16.5,0-1.51-.15-2.63-1.42-2.45-2.95.07-.57.46-1.16.72-1.67,2.37-4.56,5.44-8.97,7.87-13.53.41-.66,1.03-1.11,1.81-1.21ZM27.8,53.71c.27-.25-.18-.9-.33-1.19-2.33-4.49-5.35-8.81-7.72-13.3l-.53-.46-8.46,14.47v.38s.63.26.63.26c5.1-.34,10.72.42,15.75,0,.2-.02.51-.02.66-.16Z"/>
  <path d="M31.82,21.66l11.43-.02c1.18.51.91,2.03-.37,2.14-3.35-.28-7.3.37-10.58,0-1.34-.15-1.65-1.49-.48-2.11Z"/>
  <path d="M32.07,43.07l10.91-.02c1.33.2,1.26,1.99.14,2.14h-11.2c-1.05-.18-1.16-1.88.15-2.12Z"/>
  <path d="M31.39,40.6c-.73-.8-.09-1.74.9-1.85,3.28-.37,7.23.28,10.58,0,1.4.1,1.55,1.98.13,2.15-3.37.4-7.51-.31-10.96,0-.21-.02-.51-.15-.65-.3Z"/>
  <path d="M31.82,17.38l11.43-.02c1.22.54.85,2.13-.5,2.14-3.28-.27-7.12.36-10.32,0-1.38-.15-1.86-1.45-.6-2.11Z"/>
  <path d="M32.2,47.35c.9-.15,4.45-.15,5.35,0,1.5.25,1.47,2.01-.11,2.22-.97.13-4.3.14-5.25-.02-1.46-.24-1.46-1.96,0-2.21Z"/>
  <path d="M38.36,26.21c.6.65.2,1.71-.66,1.84s-4.77.14-5.65,0c-1.22-.19-1.22-1.95-.13-2.13.97-.16,4.77-.14,5.79-.01.21.03.51.14.65.3Z"/>
  <path d="M18.55,25.62c-.15-.14-.27-.43-.3-.65-.08-.68-.09-3,.01-3.65.17-1.05,1.87-1.16,2.1.15.11.62.11,2.84,0,3.47-.15.86-1.16,1.29-1.82.68Z"/>
  <path d="M19.22,27.59c1.58-.08,1.55,2.62.11,2.61s-1.44-2.54-.11-2.61Z"/>
  <path d="M18.98,42.06c.68-.16,1.31.24,1.41.92.09.57.09,2.94-.02,3.49-.24,1.17-1.92,1.18-2.1.02-.1-.62-.1-3.02,0-3.64.06-.38.33-.71.71-.8Z"/>
  <path d="M19.11,49.1c1.56-.3,1.84,2.5.2,2.58-1.28.07-1.57-2.32-.2-2.58Z"/>
</svg>