<?xml version="1.0" encoding="UTF-8"?>
<svg id="Layer_1" data-name="Layer 1" xmlns="http://www.w3.org/2000/svg" viewBox="0 0 550.39 329.24">
  <defs>
    <style>
      .cls-1 {
        fill: #fff;
      }
    </style>
  </defs>
  <g>
    <path d="M134.45,218.35l.72-.36,12.82-12.85,1.2-.23,18.74,18.47c.63.68.63,1.5,0,2.18l-33.44,33.52-.05,61.39c-.7,4.85-4.58,8.38-9.47,8.77H9.53c-4.41-.43-8.13-3.56-9.18-7.88-.72-52.33-.09-104.77-.32-157.14.41-5.51,4.25-9.45,9.73-9.95h26.04c-.04-8.31,8.5-6.6,14.24-6.76,1.87-3.14,4.02-5.98,7.14-7.98,9.58-6.14,22.56-2.37,27.14,7.98,5.89.24,14.44-1.73,14.6,6.76h25.81c3.84-.27,9.71,4.43,9.71,8.28v55.8ZM79.49,154.51c-2.23-14.53-22.16-14.67-24.24,0h-12.48v13.44h49.2v-13.44h-12.48ZM35.81,161.23H9.53c-.54,0-2.34,1.42-2.36,2.2l-.17,155.61c.08,1.47.72,2.68,2.21,3.07l115.29.17c2.04-.02,3.19-1.81,3.24-3.72v-52.45s-.73.36-.73.36l-31.36,31.28-31.76,13.6c-.97.43-2.17-.12-2.18-1.2l13.84-32.51,52-52.17.2-60.54c.19-1.41-1.35-3.71-2.77-3.71h-26.04v8.52c0,2.2-3.3,5.33-5.63,5.17h-52.09c-2.17.1-5.4-2.86-5.4-4.93v-8.76ZM85.73,278.11l-5.84.76-8.57,19.51c1.63.74,2.73,2.07,3.75,3.47l19.25-8.18.76-6.68c-.52.01-1.04-.04-1.56,0-2.34.18-5.18.93-7.46.97-.46,0-.96-.03-1.19-.49-.48-.96,1.35-8.86.84-9.36Z"/>
    <path d="M168.14,218.5c-4.43-4.3-9.17-9-13.44-13.44-.37-.39-2.52-2.63-2.6-2.8-.13-.27-.19-.52-.13-.82l11.79-11.99c2.77-2.14,6.85-2.5,9.98-.9,2.32,1.18,10.24,9.19,11.24,11.56,3.82,9.06-7.62,14.77-12.37,20.74-.49.37-1.08.52-1.66.25-.17-.08-2.42-2.23-2.8-2.6Z"/>
    <path class="cls-1" d="M35.81,161.23v8.76c0,2.07,3.23,5.03,5.4,4.92h52.09c2.33.18,5.63-2.95,5.63-5.16v-8.52h26.04c1.42,0,2.96,2.3,2.77,3.71l-.2,60.54-52,52.17-13.84,32.51c.01,1.07,1.21,1.63,2.18,1.2l31.76-13.6,31.36-31.28.72-.36v52.45c-.04,1.91-1.19,3.7-3.23,3.72l-115.29-.17c-1.49-.39-2.13-1.6-2.21-3.07l.17-155.61c.02-.78,1.82-2.2,2.36-2.2h26.28ZM42.92,183.32l-12.03,11.98-6-5.99-4.92,4.92,10.92,10.92,16.9-16.95-4.87-4.87ZM103.97,188.83h-47.76v6.24h47.76v-6.24ZM43.46,218.14l-.82.2-11.56,11.51c-.3.11-.46-.05-.68-.2-.91-.61-5.12-5.53-5.51-5.53l-4.92,4.92,10.42,10.45.68.2,16.7-16.85-4.32-4.69ZM103.97,223.63h-47.76v5.88l.36.36h47.4v-6.24ZM22.53,261.22c-.36.35-2.55,2.11-2.55,2.36l10.92,10.92,16.9-17.12-4.66-4.71-11.9,11.98-.47-.1-5.68-5.62c-.79-.21-2.04,1.79-2.56,2.29ZM76.37,258.43h-20.16v6h20.16v-6ZM42.92,287.48l-12.03,11.98-6-5.99-4.92,4.92,10.92,10.92,16.9-16.95-4.87-4.87Z"/>
    <rect x="56.21" y="188.83" width="47.76" height="6.24"/>
    <polygon points="103.97 223.63 103.97 229.87 56.57 229.87 56.21 229.51 56.21 223.63 103.97 223.63"/>
    <path d="M43.46,218.14l4.32,4.69-16.7,16.85-.68-.2-10.42-10.45,4.92-4.92c.39,0,4.6,4.92,5.51,5.53.22.15.38.31.68.2l11.56-11.51.82-.2Z"/>
    <polygon points="42.92 183.32 47.79 188.19 30.89 205.14 19.98 194.23 24.89 189.31 30.89 195.3 42.92 183.32"/>
    <polygon points="42.92 287.48 47.79 292.35 30.89 309.3 19.98 298.39 24.89 293.47 30.89 299.46 42.92 287.48"/>
    <path d="M22.53,261.22c.52-.5,1.77-2.5,2.56-2.29l5.68,5.62.47.1,11.9-11.98,4.66,4.71-16.9,17.12-10.92-10.92c0-.26,2.19-2.02,2.55-2.36Z"/>
    <rect x="56.21" y="258.43" width="20.16" height="6"/>
    <path d="M66.47,150.01c7.99-1.22,8.66,11.97-.28,10.72-5.64-.79-5.72-9.8.28-10.72Z"/>
  </g>
  <g>
    <path d="M493.74,64.58c-1.33-.44-2.37-1.36-2.52-2.83V6.23c.15-1.41,1.2-2.56,2.6-2.82l14.52-.02c.07-1.66,1.19-3,2.85-3.25,4.34.22,9.04-.34,13.34-.02,1.89.14,3.08,1.39,3.21,3.27l14.52.02c1.27.23,2.18,1.15,2.54,2.37l.06,56.09c-.23,1.41-1.21,2.27-2.52,2.71h-48.59ZM511.33,2.29c-.64.21-.79.67-.85,1.29-.11,1.15-.14,4.06.02,5.15.11.75.56,1.07,1.31,1.09,4.01-.29,8.52.37,12.47,0,.94-.09,1.23-.38,1.32-1.32.11-1.19.13-3.87,0-5.04-.06-.49-.21-.86-.66-1.1l-13.6-.07ZM508.34,5.54h-14.29c-.29,0-.81.72-.7,1.06l.06,55.22.7.56h47.85c.49-.17.79-.45.76-1V6.6c.11-.34-.41-1.06-.7-1.06h-14.29v2.14h11.27c.41,0,1.35.87,1.45,1.32.24,14.26.12,28.6.06,42.88-.14.27-.26.56-.44.81-1.77,2.38-5.12,4.66-7.05,7.05l-1.1.53-34.98-.09c-.66-.22-1.06-.68-1.34-1.3-.15-16.6-.19-33.29.02-49.89.11-.44,1.05-1.32,1.45-1.32h11.27v-2.14ZM508.6,9.82h-10.95v48.34h33.24v-5.6c0-.23.38-.99.56-1.2.2-.23,1.01-.75,1.26-.75h5.73V9.82h-10.95c-.37,1.21-1.51,1.96-2.72,2.13-4.25-.22-8.87.34-13.08.02-1.4-.11-2.63-.75-3.08-2.15ZM536.92,52.75h-3.71l-.19.19v3.59l3.9-3.78Z"/>
    <path class="cls-1" d="M493.74,64.58h-7.93V0h64.58v64.58h-8.06c1.3-.43,2.29-1.29,2.52-2.71l-.06-56.09c-.36-1.22-1.27-2.14-2.54-2.37l-14.52-.02c-.13-1.88-1.32-3.13-3.21-3.27-4.29-.32-9,.24-13.34.02-1.67.25-2.78,1.59-2.85,3.25l-14.52.02c-1.39.25-2.45,1.4-2.6,2.82v55.53c.15,1.46,1.19,2.39,2.52,2.83Z"/>
    <path d="M510.44,15.15c.96-.03,1.61.44,2.16,1.17l8.44,14.6c.69,1.66-.37,3.42-2.18,3.58-5.36.48-11.44-.37-16.87,0-1.74-.23-2.73-2.11-1.93-3.7,2.1-3.61,4.13-7.27,6.25-10.87.62-1.04,1.59-3.05,2.29-3.88.42-.49,1.21-.88,1.85-.9ZM502.05,32.35h16.81c.22,0,.25-.67.09-.85-2.61-4.23-4.88-8.68-7.48-12.91-.25-.41-.77-1.66-1.28-1.07l-8.25,14.39.11.44Z"/>
    <path d="M510.2,36.67c.81-.1,1.69.23,2.22.86l8.53,14.63c.84,1.83-.19,3.68-2.22,3.87-5.28-.4-11.3.51-16.5,0-1.51-.15-2.63-1.42-2.45-2.95.07-.57.46-1.16.72-1.67,2.37-4.56,5.44-8.97,7.87-13.53.41-.66,1.03-1.11,1.81-1.21ZM519.02,53.72c.27-.25-.18-.9-.33-1.19-2.33-4.49-5.35-8.81-7.72-13.3l-.53-.46-8.46,14.47v.38s.63.26.63.26c5.1-.34,10.72.42,15.75,0,.2-.02.51-.02.66-.16Z"/>
    <path d="M523.04,21.68l11.43-.02c1.18.51.91,2.03-.37,2.14-3.35-.28-7.3.37-10.58,0-1.34-.15-1.65-1.49-.48-2.11Z"/>
    <path d="M523.29,43.08l10.91-.02c1.33.2,1.26,1.99.14,2.14h-11.2c-1.05-.18-1.16-1.88.15-2.12Z"/>
    <path d="M522.61,40.62c-.73-.8-.09-1.74.9-1.85,3.28-.37,7.23.28,10.58,0,1.4.1,1.55,1.98.13,2.15-3.37.4-7.51-.31-10.96,0-.21-.02-.51-.15-.65-.3Z"/>
    <path d="M523.04,17.4l11.43-.02c1.22.54.85,2.13-.5,2.14-3.28-.27-7.12.36-10.32,0-1.38-.15-1.86-1.45-.6-2.11Z"/>
    <path d="M523.42,47.37c.9-.15,4.45-.15,5.35,0,1.5.25,1.47,2.01-.11,2.22-.97.13-4.3.14-5.25-.02-1.46-.24-1.46-1.96,0-2.21Z"/>
    <path d="M529.58,26.22c.6.65.2,1.71-.66,1.84s-4.77.14-5.65,0c-1.22-.19-1.22-1.95-.13-2.13.97-.16,4.77-.14,5.79-.01.21.03.51.14.65.3Z"/>
    <path d="M509.77,25.64c-.15-.14-.27-.43-.3-.65-.08-.68-.09-3,.01-3.65.17-1.05,1.87-1.16,2.1.15.11.62.11,2.84,0,3.47-.15.86-1.16,1.29-1.82.68Z"/>
    <path d="M510.44,27.61c1.58-.08,1.55,2.62.11,2.61s-1.44-2.54-.11-2.61Z"/>
    <path d="M510.2,42.07c.68-.16,1.31.24,1.41.92.09.57.09,2.94-.02,3.49-.24,1.17-1.92,1.18-2.1.02-.1-.62-.1-3.02,0-3.64.06-.38.33-.71.71-.8Z"/>
    <path d="M510.33,49.12c1.56-.3,1.84,2.5.2,2.58-1.28.07-1.57-2.32-.2-2.58Z"/>
  </g>
</svg>