<?xml version="1.0" encoding="UTF-8"?>
<svg id="Layer_1" data-name="Layer 1" xmlns="http://www.w3.org/2000/svg" viewBox="0 0 185.73 192.67">
  <defs>
    <style>
      .cls-1 {
        fill: #fff;
      }
    </style>
  </defs>
  <path d="M134.45,81.78l.72-.36,12.82-12.85,1.2-.23,18.74,18.47c.63.68.63,1.5,0,2.18l-33.44,33.52-.05,61.39c-.7,4.85-4.58,8.38-9.47,8.77H9.53c-4.41-.43-8.13-3.56-9.18-7.88C-.36,132.47.27,80.02.04,27.65c.41-5.51,4.25-9.45,9.73-9.95h26.04c-.04-8.31,8.5-6.6,14.24-6.76,1.87-3.14,4.02-5.98,7.14-7.98,9.58-6.14,22.56-2.37,27.14,7.98,5.89.24,14.44-1.73,14.6,6.76h25.81c3.84-.27,9.71,4.43,9.71,8.28v55.8ZM79.49,17.94c-2.23-14.53-22.16-14.67-24.24,0h-12.48v13.44h49.2v-13.44h-12.48ZM35.81,24.66H9.53c-.54,0-2.34,1.42-2.36,2.2l-.17,155.61c.08,1.47.72,2.68,2.21,3.07l115.29.17c2.04-.02,3.19-1.81,3.24-3.72v-52.45s-.73.36-.73.36l-31.36,31.28-31.76,13.6c-.97.43-2.17-.12-2.18-1.2l13.84-32.51,52-52.17.2-60.54c.19-1.41-1.35-3.71-2.77-3.71h-26.04v8.52c0,2.2-3.3,5.33-5.63,5.17h-52.09c-2.17.1-5.4-2.86-5.4-4.93v-8.76ZM85.73,141.54l-5.84.76-8.57,19.51c1.63.74,2.73,2.07,3.75,3.47l19.25-8.18.76-6.68c-.52.01-1.04-.04-1.56,0-2.34.18-5.18.93-7.46.97-.46,0-.96-.03-1.19-.49-.48-.96,1.35-8.86.84-9.36Z"/>
  <path d="M168.14,81.94c-4.43-4.3-9.17-9-13.44-13.44-.37-.39-2.52-2.63-2.6-2.8-.13-.27-.19-.52-.13-.82l11.79-11.99c2.77-2.14,6.85-2.5,9.98-.9,2.32,1.18,10.24,9.19,11.24,11.56,3.82,9.06-7.62,14.77-12.37,20.74-.49.37-1.08.52-1.66.25-.17-.08-2.42-2.23-2.8-2.6Z"/>
  <path class="cls-1" d="M35.81,24.66v8.76c0,2.07,3.23,5.03,5.4,4.92h52.09c2.33.18,5.63-2.95,5.63-5.16v-8.52h26.04c1.42,0,2.96,2.3,2.77,3.71l-.2,60.54-52,52.17-13.84,32.51c.01,1.07,1.21,1.63,2.18,1.2l31.76-13.6,31.36-31.28.72-.36v52.45c-.04,1.91-1.19,3.7-3.23,3.72l-115.29-.17c-1.49-.39-2.13-1.6-2.21-3.07l.17-155.61c.02-.78,1.82-2.2,2.36-2.2h26.28ZM42.92,46.76l-12.03,11.98-6-5.99-4.92,4.92,10.92,10.92,16.9-16.95-4.87-4.87ZM103.97,52.26h-47.76v6.24h47.76v-6.24ZM43.46,81.57l-.82.2-11.56,11.51c-.3.11-.46-.05-.68-.2-.91-.61-5.12-5.53-5.51-5.53l-4.92,4.92,10.42,10.45.68.2,16.7-16.85-4.32-4.69ZM103.97,87.06h-47.76v5.88l.36.36h47.4v-6.24ZM22.53,124.66c-.36.35-2.55,2.11-2.55,2.36l10.92,10.92,16.9-17.12-4.66-4.71-11.9,11.98-.47-.1-5.68-5.62c-.79-.21-2.04,1.79-2.56,2.29ZM76.37,121.86h-20.16v6h20.16v-6ZM42.92,150.92l-12.03,11.98-6-5.99-4.92,4.92,10.92,10.92,16.9-16.95-4.87-4.87Z"/>
  <rect x="56.21" y="52.26" width="47.76" height="6.24"/>
  <polygon points="103.97 87.06 103.97 93.3 56.57 93.3 56.21 92.94 56.21 87.06 103.97 87.06"/>
  <path d="M43.46,81.57l4.32,4.69-16.7,16.85-.68-.2-10.42-10.45,4.92-4.92c.39,0,4.6,4.92,5.51,5.53.22.15.38.31.68.2l11.56-11.51.82-.2Z"/>
  <polygon points="42.92 46.76 47.79 51.63 30.89 68.58 19.98 57.66 24.89 52.75 30.89 58.74 42.92 46.76"/>
  <polygon points="42.92 150.92 47.79 155.79 30.89 172.74 19.98 161.82 24.89 156.91 30.89 162.9 42.92 150.92"/>
  <path d="M22.53,124.66c.52-.5,1.77-2.5,2.56-2.29l5.68,5.62.47.1,11.9-11.98,4.66,4.71-16.9,17.12-10.92-10.92c0-.26,2.19-2.02,2.55-2.36Z"/>
  <rect x="56.21" y="121.86" width="20.16" height="6"/>
  <path d="M66.47,13.44c7.99-1.22,8.66,11.97-.28,10.72-5.64-.79-5.72-9.8.28-10.72Z"/>
</svg>